<svg width="16" height="13" viewBox="0 0 16 13" fill="none" xmlns="http://www.w3.org/2000/svg">
<rect width="16" height="13" fill="black" fill-opacity="0"/>
<rect width="16" height="13" fill="black" fill-opacity="0"/>
<path d="M1.08475 10.2421V12.7233C1.08475 12.8742 1.21295 13 1.37402 13H3.37919C3.53697 13 3.66846 12.8774 3.66846 12.7233V8.35849L2.21224 9.75157C1.90325 10.044 1.50879 10.2138 1.08475 10.2421Z" fill="#3D3D3D"/>
<path d="M4.66776 8.32706V12.7233C4.66776 12.8742 4.79595 13 4.95703 13H6.96219C7.11998 13 7.25146 12.8774 7.25146 12.7233V10.1352C6.79455 10.1258 6.36722 9.95284 6.04508 9.64467L4.66776 8.32706Z" fill="#3D3D3D"/>
<path d="M8.25076 9.86163V12.7233C8.25076 12.8742 8.37896 13 8.54003 13H10.5452C10.703 13 10.8345 12.8774 10.8345 12.7233V7.44339L8.53675 9.6415C8.44799 9.72641 8.35266 9.79874 8.25076 9.86163Z" fill="#3D3D3D"/>
<path d="M14.2235 4.19812L11.8338 6.48428V12.7233C11.8338 12.8742 11.962 13 12.123 13H14.1282C14.286 13 14.4175 12.8774 14.4175 12.7233V4.37108C14.3517 4.31762 14.3024 4.27045 14.2663 4.239L14.2235 4.19812Z" fill="#3D3D3D"/>
<path d="M15.8638 0.147799C15.7685 0.0503144 15.6239 0 15.4398 0C15.4234 0 15.4036 0 15.3872 0C14.4537 0.0408805 13.5234 0.0849057 12.5898 0.125786C12.4649 0.132075 12.294 0.138365 12.1592 0.267296C12.1165 0.308176 12.0836 0.355346 12.0573 0.41195C11.9192 0.698113 12.1132 0.883648 12.2052 0.971698L12.4386 1.19811C12.5997 1.35535 12.7641 1.51258 12.9284 1.66667L7.28764 7.06604L4.75324 4.64151C4.60203 4.49685 4.39822 4.41509 4.18127 4.41509C3.96432 4.41509 3.7638 4.49685 3.61259 4.64151L0.236676 7.86792C-0.0788919 8.16981 -0.0788919 8.65723 0.236676 8.95912L0.387885 9.10377C0.539095 9.24843 0.742899 9.33019 0.959851 9.33019C1.1768 9.33019 1.37732 9.24843 1.52853 9.10377L4.18127 6.56604L6.71567 8.99057C6.86688 9.13522 7.07069 9.21698 7.28764 9.21698C7.50459 9.21698 7.70511 9.13522 7.8596 8.99057L14.2236 2.90252L14.9434 3.58805C15.0289 3.66981 15.1472 3.78302 15.328 3.78302C15.4036 3.78302 15.4792 3.76415 15.5581 3.72327C15.6107 3.69497 15.6568 3.66352 15.6962 3.62579C15.8375 3.49057 15.8638 3.31761 15.8704 3.18239C15.8967 2.60377 15.9263 2.02516 15.9559 1.4434L15.9986 0.572327C16.0085 0.389937 15.9657 0.248428 15.8638 0.147799Z" fill="#3D3D3D"/>
</svg>
